<svg version="1.1" xmlns="http://www.w3.org/2000/svg" xmlns:xlink="http://www.w3.org/1999/xlink" viewBox="0 0 172 172"><g ><path d="M0,172v-172h172v172z" fill="none"></path><g fill="#006697"><path d="M99.76,15.5875c-17.93906,0 -33.12344,10.73656 -40.42,25.9075c-3.88344,-2.67406 -8.385,-4.6225 -13.4375,-4.6225c-12.81937,0 -23.04531,10.14531 -23.7575,22.79c-12.81937,4.6225 -22.145,16.58188 -22.145,30.96c0,18.32875 14.88875,33.2175 33.2175,33.2175h28.7025c1.23625,0.01344 2.39188,-0.63156 3.02344,-1.70656c0.61813,-1.075 0.61813,-2.39187 0,-3.46687c-0.63156,-1.075 -1.78719,-1.72 -3.02344,-1.70656h-28.7025c-14.62,0 -26.3375,-11.73094 -26.3375,-26.3375c0,-12.16094 8.19688,-22.40031 19.35,-25.4775c1.51844,-0.44344 2.53969,-1.86781 2.4725,-3.44c-0.01344,-0.48375 0,-0.72562 0,-0.7525c0,-9.55406 7.64594,-17.2 17.2,-17.2c4.78375,0 9.1375,1.92156 12.255,5.0525c0.81969,0.79281 1.98875,1.14219 3.10406,0.90031c1.12875,-0.24188 2.05594,-1.02125 2.48594,-2.08281c5.41531,-14.62 19.47094,-25.155 36.0125,-25.155c21.23125,0 38.3775,17.15969 38.3775,38.3775c0,1.57219 -0.12094,3.1175 -0.3225,4.73c-0.12094,0.9675 0.17469,1.935 0.80625,2.67406c0.63156,0.73906 1.55875,1.16906 2.52625,1.19594h0.215c13.15531,0 23.7575,10.60219 23.7575,23.7575c0,13.15531 -10.60219,23.7575 -23.7575,23.7575h-31.2825c-1.23625,-0.01344 -2.39187,0.63156 -3.02344,1.70656c-0.61813,1.075 -0.61813,2.39187 0,3.46687c0.63156,1.075 1.78719,1.72 3.02344,1.70656h31.2825c16.8775,0 30.6375,-13.76 30.6375,-30.6375c0,-15.65469 -12.01312,-28.09781 -27.1975,-29.885c0.05375,-0.83312 0.215,-1.6125 0.215,-2.4725c0,-24.94 -20.3175,-45.2575 -45.2575,-45.2575zM86,74.2825l-2.4725,2.365l-17.2,17.2c-1.37062,1.37063 -1.37062,3.57438 0,4.945c1.37063,1.37063 3.57438,1.37063 4.945,0l11.2875,-11.2875v60.415c-0.01344,1.23625 0.63156,2.39188 1.70656,3.02344c1.075,0.61813 2.39187,0.61813 3.46687,0c1.075,-0.63156 1.72,-1.78719 1.70656,-3.02344v-60.415l11.2875,11.2875c1.37063,1.37063 3.57438,1.37063 4.945,0c1.37063,-1.37062 1.37063,-3.57437 0,-4.945l-17.2,-17.2z"></path></g></g></svg>